<svg xmlns="http://www.w3.org/2000/svg" version="1.1" xmlns:xlink="http://www.w3.org/1999/xlink" xmlns:svgjs="http://svgjs.dev/svgjs" width="1500" height="1500" viewBox="0 0 1500 1500"><rect width="1500" height="1500" fill="#fffbfb"></rect><g transform="matrix(0.6666666666666666,0,0,0.6666666666666666,249.39393939393938,601.1326301500484)"><svg viewBox="0 0 396 118" data-background-color="#fffbfb" preserveAspectRatio="xMidYMid meet" height="446" width="1500" xmlns="http://www.w3.org/2000/svg" xmlns:xlink="http://www.w3.org/1999/xlink"><g id="tight-bounds" transform="matrix(1,0,0,1,0.2400000000000091,0.07965126332163663)"><svg viewBox="0 0 395.52 117.84069747335671" height="117.84069747335671" width="395.52"><g><svg viewBox="0 0 706.7732780225037 210.57508100147274" height="117.84069747335671" width="395.52"><g transform="matrix(1,0,0,1,311.2532780225037,0)"><svg viewBox="0 0 395.52 210.57508100147274" height="210.57508100147274" width="395.52"><g id="textblocktransform"><svg viewBox="0 0 395.52 210.57508100147274" height="210.57508100147274" width="395.52" id="textblock"><g><svg viewBox="0 0 395.52 210.57508100147274" height="210.57508100147274" width="395.52"><g transform="matrix(1,0,0,1,0,0)"><svg width="395.52" viewBox="3.9 -35.7 67.89999999999999 36.150000000000006" height="210.57508100147274" data-palette-color="#000000"><g class="wordmark-text-0" data-fill-palette-color="primary" id="text-0"><path d="M21.1-12.2L33.15-35.25 38.2-35.25 38.2 0 32.5 0 32.5-23.3 23.2-5.7 18.9-5.7 9.55-23.05 9.6 0 3.9 0 3.9-35.25 9-35.25 21.1-12.2ZM57.8 0.45Q53.75 0.45 50.2-0.65 46.65-1.75 44.2-3.75L44.2-3.75 46.35-8.45Q48.9-6.5 51.72-5.6 54.55-4.7 57.85-4.7L57.85-4.7Q61.5-4.7 63.47-5.98 65.45-7.25 65.45-9.55L65.45-9.55Q65.45-11.55 63.62-12.6 61.8-13.65 57.55-14.6L57.55-14.6Q53.15-15.55 50.4-16.8 47.65-18.05 46.25-20 44.85-21.95 44.85-24.95L44.85-24.95Q44.85-28.05 46.55-30.5 48.25-32.95 51.35-34.33 54.45-35.7 58.5-35.7L58.5-35.7Q62.2-35.7 65.55-34.58 68.9-33.45 71.05-31.5L71.05-31.5 68.9-26.8Q64.2-30.55 58.5-30.55L58.5-30.55Q55.1-30.55 53.12-29.18 51.15-27.8 51.15-25.35L51.15-25.35Q51.15-23.3 52.9-22.2 54.65-21.1 58.85-20.15L58.85-20.15Q63.3-19.15 66.07-17.93 68.85-16.7 70.32-14.8 71.8-12.9 71.8-10L71.8-10Q71.8-6.85 70.12-4.48 68.45-2.1 65.27-0.83 62.1 0.45 57.8 0.45L57.8 0.45Z" fill="#000000" data-fill-palette-color="primary"></path></g></svg></g></svg></g></svg></g></svg></g><g transform="matrix(1,0,0,1,0,0.6698728990822786)"><svg viewBox="0 0 261.5415552 209.23533520330818" height="209.23533520330818" width="261.5415552"><g><svg xmlns="http://www.w3.org/2000/svg" xmlns:xlink="http://www.w3.org/1999/xlink" version="1.1" x="0" y="0" viewBox="0 10 99.99900062611025 80" enable-background="new 0 0 100 100" xml:space="preserve" height="209.23533520330818" width="261.5415552" class="icon-icon-0" data-fill-palette-color="accent" id="icon-0"><path fill="#e77917" d="M97.327 10H2.673C1.197 10 0 11.197 0 12.673V25v62.327C0 88.803 1.197 90 2.673 90h94.653c1.476 0 2.673-1.197 2.673-2.673V25 12.673C100 11.197 98.803 10 97.327 10zM95 85H5V30h90V85zM5 25V15h90v10H5z" data-fill-palette-color="accent"></path><circle fill="#e77917" cx="10" cy="20" r="2.0" data-fill-palette-color="accent"></circle><circle fill="#e77917" cx="17.5" cy="20" r="2.0" data-fill-palette-color="accent"></circle><circle fill="#e77917" cx="25" cy="20" r="2.0" data-fill-palette-color="accent"></circle><path fill="#e77917" d="M32.116 73.384c-0.764 0.764-2.004 0.764-2.768 0L15.61 59.645c-0.909-0.909-0.909-2.382 0-3.29l13.739-13.739c0.764-0.764 2.004-0.764 2.768 0l0.643 0.643c0.833 0.833 0.833 2.184 0 3.018L21.143 57.893c-0.059 0.059-0.059 0.155 0 0.214l11.741 11.741c0.764 0.764 0.764 2.004 0 2.768L32.116 73.384z" data-fill-palette-color="accent"></path><path fill="#e77917" d="M68.019 73.384c0.764 0.764 2.004 0.764 2.768 0l13.739-13.739c0.909-0.909 0.909-2.382 0-3.29L70.787 42.616c-0.764-0.764-2.004-0.764-2.768 0l-0.643 0.643c-0.833 0.833-0.833 2.184 0 3.018l11.616 11.616c0.059 0.059 0.059 0.155 0 0.214L67.251 69.848c-0.764 0.764-0.764 2.004 0 2.768L68.019 73.384z" data-fill-palette-color="accent"></path><path fill="#e77917" d="M61.388 41.954c-0.137-0.501-0.467-0.927-0.917-1.184l-0.943-0.539c-0.938-0.536-2.134-0.21-2.67 0.728L38.8 72.56c-0.258 0.451-0.325 0.985-0.189 1.486 0.137 0.501 0.467 0.927 0.917 1.184l0.943 0.539c0.938 0.536 2.134 0.21 2.67-0.728L61.2 43.44C61.457 42.989 61.525 42.454 61.388 41.954z" data-fill-palette-color="accent"></path></svg></g></svg></g></svg></g><defs></defs></svg><rect width="395.52" height="117.84069747335671" fill="none" stroke="none" visibility="hidden"></rect></g></svg></g></svg>