<svg xmlns="http://www.w3.org/2000/svg" xmlns:xlink="http://www.w3.org/1999/xlink" version="1.1" id="Layer_1" x="0px" y="0px" viewBox="0 0 712 153.5" style="enable-background:new 0 0 712 153.5;" xml:space="preserve">
<style type="text/css">
	.st0{fill:#000;}
	.st1{fill:#ED1C24;}
	.st2{fill:#DB2126;}
</style>
<g>
	<g>
		<g>
			<path class="st0" d="M402.9,91.5h22V6.2h-22V91.5z M690.3,7.5h2.8v8.9h1.3V7.5h2.8V6.3h-6.9V7.5z M127.5,6.2H84.8v85.3h22V62.9     h20.7c19.2,0,29.7-12.9,29.7-28.3C157.2,19.1,146.7,6.2,127.5,6.2 M124.6,43.7h-17.8V25.4h17.8c5.9,0,10.2,3.3,10.2,9.2     C134.8,40.3,130.5,43.7,124.6,43.7 M706.7,6.3l-2.9,7.3l-2.9-7.3h-2v10h1.3V8l3.4,8.3h0.4l3.4-8.3v8.3h1.3v-10H706.7z M358.6,6.2     h-22v78.1l18.4,7.2h37.9V72.3h-34.3V6.2z M518.2,73.8l0.1-31.5h-34.6v19.3h12.7v6.5c-4,3.1-8.2,4.9-15.1,4.9     c-13.6,0-23.7-10.5-23.7-24.4c0-13.5,11.4-24.5,23.8-24.1c8.5,0.3,12.1,1.5,18.6,8.3l14.5-13.7c-8.2-8.7-18.2-14.4-34-14.3     c-24.4,0.1-45.9,17.2-45.5,44.2c0.5,29.7,24.8,43.9,46.4,43.6C495.4,92.5,508.2,87.3,518.2,73.8 M257.2,25.4h23.9v37.1l22,8.6     V25.4h23.8V6.2h-69.7V25.4z M29.3,29.4c0-3.6,2.6-6.3,9-6.2c6.3,0,12.5,1.4,18,4.1L71,13.4C69.6,12.5,58.6,4,40.7,4     C18.7,4,6.5,17.2,6.5,31.6C6.5,64.2,55,54.7,55,66.3c0,4.1-4.3,7-11.9,7c-9.5,0-17.8-2.8-25.1-9.2L3.4,77.8     c9.2,8.5,21.2,14.4,38.5,14.4c22.3,0,35.7-11.2,35.7-28.4C77.6,31.3,29.3,40,29.3,29.4 M640.5,91.5h22V25.4h23.8V6.2h-69.7v19.2     h23.9V91.5z M607.4,91.5V6.2h-22V38H550V6.2h-22v85.3h22V57.2h35.4v34.3H607.4z"/>
			<path class="st1" d="M251,34.9c-7.5-23.1-32.4-35.7-55.5-28.2c-8.4,2.7-15.3,7.7-20.5,14.1l5.2,2.1l72.9,28.6     C253.5,46,252.8,40.4,251,34.9 M168.1,32.7c-3.5,9.1-4.1,19.5-0.8,29.6c6.4,19.6,25.3,31.7,45.1,30.3     c-3.8-5.2-8.1-10.9-12.4-16.8L168.1,32.7z"/>
			<path class="st0" d="M243.4,138.2c2.7,2.9,6.9,5.4,12.3,5.4c5.6,0,7.8-2.7,7.8-5.3c0-3.5-4.1-4.6-8.9-5.8     c-6.4-1.6-13.8-3.4-13.8-11.7c0-6.4,5.7-11.4,14.2-11.4c6.1,0,11,1.9,14.6,5.4l-3.9,5.1c-3-3-7.2-4.4-11.3-4.4     c-4,0-6.6,1.9-6.6,4.8c0,3,4,4,8.6,5.2c6.4,1.6,14.1,3.6,14.1,12.1c0,6.5-4.5,12-15.1,12c-7.2,0-12.4-2.5-15.8-6.2L243.4,138.2z"/>
			<path class="st0" d="M276.1,110h17.1c8.2,0,12.7,5.6,12.7,12.2c0,6.6-4.6,12.2-12.7,12.2h-10.3v14.5h-6.8V110z M292.3,116h-9.3     v12.4h9.3c3.8,0,6.7-2.5,6.7-6.2C298.9,118.5,296.1,116,292.3,116"/>
			<path class="st0" d="M329.1,109.4c11.7,0,19.9,8.5,19.9,20.1c0,11.6-8.2,20.1-19.9,20.1c-11.7,0-19.9-8.5-19.9-20.1     C309.2,117.9,317.4,109.4,329.1,109.4 M329.1,115.4c-7.9,0-12.9,6-12.9,14.1c0,8,5,14.1,12.9,14.1c7.8,0,12.9-6.1,12.9-14.1     C342,121.5,336.9,115.4,329.1,115.4"/>
			<path class="st0" d="M368.5,134.4h-6.8v14.5h-6.8V110H372c7.7,0,12.7,5,12.7,12.2c0,6.9-4.5,10.7-9.2,11.4l9.5,15.3h-7.9     L368.5,134.4z M371.1,116h-9.3v12.4h9.3c3.9,0,6.7-2.5,6.7-6.2C377.7,118.5,374.9,116,371.1,116"/>
			<polygon class="st0" points="399.6,116 387.8,116 387.8,110 418.2,110 418.2,116 406.4,116 406.4,148.9 399.6,148.9    "/>
			<path class="st0" d="M424.3,138.2c2.7,2.9,6.9,5.4,12.3,5.4c5.6,0,7.8-2.7,7.8-5.3c0-3.5-4.1-4.6-8.9-5.8     c-6.4-1.6-13.8-3.4-13.8-11.7c0-6.4,5.7-11.4,14.2-11.4c6.1,0,11,1.9,14.6,5.4l-3.9,5.1c-3-3-7.2-4.4-11.3-4.4     c-4,0-6.6,1.9-6.6,4.8c0,3,4,4,8.6,5.2c6.4,1.6,14.1,3.6,14.1,12.1c0,6.5-4.5,12-15.1,12c-7.2,0-12.4-2.5-15.8-6.2L424.3,138.2z"/>
			<path class="st0" d="M490.1,109.4c7.6,0,12.5,3.6,15.7,8.1l-5.6,3.2c-2-2.9-5.7-5.2-10.1-5.2c-7.7,0-13.4,5.9-13.4,14.1     c0,8.2,5.7,14.1,13.4,14.1c4,0,7.5-1.9,9.2-3.5v-6.1h-11.6v-6h18.4v14.6c-3.8,4.3-9.3,7.1-16,7.1c-11.3,0-20.4-8-20.4-20.2     C469.7,117.3,478.8,109.4,490.1,109.4"/>
			<path class="st0" d="M526.2,134.4h-6.8v14.5h-6.8V110h17.1c7.7,0,12.7,5,12.7,12.2c0,6.9-4.6,10.7-9.2,11.4l9.5,15.3h-7.9     L526.2,134.4z M528.8,116h-9.3v12.4h9.3c3.8,0,6.6-2.5,6.6-6.2C535.4,118.5,532.6,116,528.8,116"/>
			<path class="st0" d="M566.7,109.4c11.7,0,19.9,8.5,19.9,20.1c0,11.6-8.2,20.1-19.9,20.1c-11.7,0-19.9-8.5-19.9-20.1     C546.8,117.9,555.1,109.4,566.7,109.4 M566.7,115.4c-7.9,0-12.9,6-12.9,14.1c0,8,5,14.1,12.9,14.1c7.8,0,12.9-6.1,12.9-14.1     C579.6,121.5,574.6,115.4,566.7,115.4"/>
			<path class="st0" d="M592.6,110h6.9v23.3c0,6.2,3.4,10.2,10,10.2c6.5,0,9.9-4,9.9-10.2V110h6.9v23.5c0,9.7-5.5,16.1-16.8,16.1     c-11.3,0-16.9-6.5-16.9-16V110z"/>
			<path class="st0" d="M633.9,110H651c8.2,0,12.7,5.6,12.7,12.2c0,6.6-4.6,12.2-12.7,12.2h-10.3v14.5h-6.8V110z M650,116h-9.3v12.4     h9.3c3.9,0,6.7-2.5,6.7-6.2C656.7,118.5,653.9,116,650,116"/>
		</g>
	</g>
</g>
</svg>